/* XPM */
static char * connection_modem_xpm[] = {
"48 48 627 2",
"  	c None",
". 	c #EDEDED",
"+ 	c #F1F1F1",
"@ 	c #E8E8E8",
"# 	c #F7F7F7",
"$ 	c #F6F6F6",
"% 	c #F5F5F5",
"& 	c #F4F4F4",
"* 	c #F3F3F3",
"= 	c #F2F2F2",
"- 	c #F0F0F0",
"; 	c #EFEFEF",
"> 	c #EBEBEB",
", 	c #EAEAEA",
"' 	c #C6C6C6",
") 	c #393939",
"! 	c #EEEEEE",
"~ 	c #E1E1E1",
"{ 	c #DADADA",
"] 	c #D9D9D9",
"^ 	c #D8D8D8",
"/ 	c #D7D7D7",
"( 	c #D6D6D6",
"_ 	c #D4D4D4",
": 	c #D3D3D3",
"< 	c #D2D2D2",
"[ 	c #CFCFCF",
"} 	c #CECECE",
"| 	c #CBCBCB",
"1 	c #E9E9E9",
"2 	c #E4E4E4",
"3 	c #666666",
"4 	c #020202",
"5 	c #DEDEDE",
"6 	c #5D5D5D",
"7 	c #373737",
"8 	c #363636",
"9 	c #353535",
"0 	c #343434",
"a 	c #383838",
"b 	c #424242",
"c 	c #DFDFDF",
"d 	c #E7E7E7",
"e 	c #6D6D6D",
"f 	c #010101",
"g 	c #303030",
"h 	c #9F9D99",
"i 	c #C9C7C2",
"j 	c #CAC7C2",
"k 	c #C5C3BD",
"l 	c #BBB9B3",
"m 	c #B5B3AD",
"n 	c #B0ADA8",
"o 	c #AFABA3",
"p 	c #A9A69D",
"q 	c #A29E96",
"r 	c #9B978E",
"s 	c #918D84",
"t 	c #807D75",
"u 	c #716E66",
"v 	c #22211E",
"w 	c #E6E6E6",
"x 	c #D2D0CB",
"y 	c #E2E7E9",
"z 	c #FFFFFF",
"A 	c #F8F8F8",
"B 	c #CBD1D4",
"C 	c #B9C1C4",
"D 	c #B3BBBF",
"E 	c #C3C1BB",
"F 	c #C2BEB4",
"G 	c #BAB5AB",
"H 	c #B1ACA1",
"I 	c #A29E94",
"J 	c #677073",
"K 	c #7A7A71",
"L 	c #2C2B28",
"M 	c #6A6A6A",
"N 	c #D3D0CB",
"O 	c #F9F8F7",
"P 	c #FDFDFD",
"Q 	c #F4F3F1",
"R 	c #EDEBE9",
"S 	c #EAE8E5",
"T 	c #E7E5E1",
"U 	c #CEC9C1",
"V 	c #C2BDB3",
"W 	c #B0ABA1",
"X 	c #A29D94",
"Y 	c #83837B",
"Z 	c #8F8876",
"` 	c #2B2A27",
" .	c #E3E3E3",
"..	c #686868",
"+.	c #CFCCC6",
"@.	c #F6F6F4",
"#.	c #F9F9F8",
"$.	c #F0EEEC",
"%.	c #ECEAE7",
"&.	c #E9E7E3",
"*.	c #E6E4E0",
"=.	c #CCC8C0",
"-.	c #C0BCB2",
";.	c #B9B4AB",
">.	c #AFAAA0",
",.	c #A19C91",
"'.	c #9F8E73",
").	c #8A736D",
"!.	c #2B2926",
"~.	c #CAC7C0",
"{.	c #F3F2F0",
"].	c #EAE8E4",
"^.	c #E5E2DE",
"/.	c #CAC6BE",
"(.	c #BEBAB0",
"_.	c #B7B2A8",
":.	c #AEA89F",
"<.	c #9F988E",
"[.	c #88554E",
"}.	c #896E68",
"|.	c #2A2825",
"1.	c #E0E0E0",
"2.	c #636363",
"3.	c #C5C1BB",
"4.	c #EEECEA",
"5.	c #E8E7E3",
"6.	c #E4E1DD",
"7.	c #E1DFDA",
"8.	c #C6C2B9",
"9.	c #BBB6AC",
"0.	c #B5AFA5",
"a.	c #ABA69C",
"b.	c #9D988E",
"c.	c #918D85",
"d.	c #8E8A81",
"e.	c #616161",
"f.	c #2F2F2F",
"g.	c #BFBAB4",
"h.	c #E6E4E1",
"i.	c #E5E3E0",
"j.	c #E1DFDC",
"k.	c #DEDCD8",
"l.	c #DCDAD6",
"m.	c #DAD8D3",
"n.	c #BFBBB2",
"o.	c #B4AFA5",
"p.	c #AFA9A0",
"q.	c #A5A096",
"r.	c #989389",
"s.	c #8F8B82",
"t.	c #8C8880",
"u.	c #292724",
"v.	c #DCDCDC",
"w.	c #5F5F5F",
"x.	c #D0D0D0",
"y.	c #B7B3AC",
"z.	c #DDDAD7",
"A.	c #DAD8D4",
"B.	c #D6D4D0",
"C.	c #D4D1CD",
"D.	c #D1CECA",
"E.	c #D0CDC8",
"F.	c #B5B1A8",
"G.	c #9C988E",
"H.	c #918C82",
"I.	c #89847B",
"J.	c #88837C",
"K.	c #282623",
"L.	c #AEAAA2",
"M.	c #D0CDC9",
"N.	c #CBC8C5",
"O.	c #C7C5C0",
"P.	c #C3C1BD",
"Q.	c #C1BFBA",
"R.	c #C1BEBA",
"S.	c #AAA69E",
"T.	c #A19D93",
"U.	c #9C988F",
"V.	c #959087",
"W.	c #8B857D",
"X.	c #89857D",
"Y.	c #87837C",
"Z.	c #272623",
"`.	c #5A5A5A",
" +	c #96938B",
".+	c #BAB7B0",
"++	c #B2AFA9",
"@+	c #AEAAA4",
"#+	c #ACA9A4",
"$+	c #ABA8A2",
"%+	c #A39F98",
"&+	c #9E9B93",
"*+	c #9B978F",
"=+	c #95918A",
"-+	c #8D8982",
";+	c #8A8780",
">+	c #7D7A72",
",+	c #242220",
"'+	c #353331",
")+	c #44423E",
"!+	c #413F3B",
"~+	c #3E3D39",
"{+	c #3C3B37",
"]+	c #3B3936",
"^+	c #3B3A36",
"/+	c #3A3835",
"(+	c #393734",
"_+	c #373531",
":+	c #33312D",
"<+	c #312F2C",
"[+	c #0D0D0C",
"}+	c #565656",
"|+	c #CCCCCC",
"1+	c #C3C3C3",
"2+	c #C1C1C1",
"3+	c #C0C0C0",
"4+	c #BEBEBE",
"5+	c #BCBCBC",
"6+	c #B7B7B7",
"7+	c #ECECEC",
"8+	c #E2E2E2",
"9+	c #E5E3D2",
"0+	c #EDEAC6",
"a+	c #C5C5BE",
"b+	c #3D3D3D",
"c+	c #040404",
"d+	c #030303",
"e+	c #060606",
"f+	c #DDDDDD",
"g+	c #C8C8C8",
"h+	c #D6CC75",
"i+	c #BEA00F",
"j+	c #857F66",
"k+	c #828282",
"l+	c #191919",
"m+	c #181818",
"n+	c #2D2D2D",
"o+	c #525252",
"p+	c #444444",
"q+	c #484848",
"r+	c #4C4C4C",
"s+	c #3A3A3A",
"t+	c #3C3C3C",
"u+	c #3F3F3F",
"v+	c #2C2C2C",
"w+	c #434343",
"x+	c #2A2A2A",
"y+	c #414141",
"z+	c #1B1B1B",
"A+	c #262626",
"B+	c #0A0A0A",
"C+	c #545454",
"D+	c #000000",
"E+	c #7D7D7D",
"F+	c #242424",
"G+	c #727272",
"H+	c #7A7A7A",
"I+	c #1C1C1C",
"J+	c #7B7B7B",
"K+	c #AFAFAF",
"L+	c #CECACA",
"M+	c #DCCECE",
"N+	c #DDC4C4",
"O+	c #D8B0B0",
"P+	c #9C6B6B",
"Q+	c #AA7676",
"R+	c #9B6A6A",
"S+	c #643131",
"T+	c #A7A7A7",
"U+	c #ABABAB",
"V+	c #B3B3B3",
"W+	c #CAB2B2",
"X+	c #EBB5B5",
"Y+	c #DE6161",
"Z+	c #D93E3E",
"`+	c #D12A2A",
" @	c #CF2E2E",
".@	c #CC4949",
"+@	c #C45656",
"@@	c #BF5959",
"#@	c #C46464",
"$@	c #858583",
"%@	c #E5E5E5",
"&@	c #C9C9C9",
"*@	c #AEAEAE",
"=@	c #B5ABAB",
"-@	c #E8B1B1",
";@	c #D84A4A",
">@	c #CE0808",
",@	c #C40000",
"'@	c #A41818",
")@	c #C03737",
"!@	c #CB0505",
"~@	c #CC1313",
"{@	c #D03838",
"]@	c #CB4A4A",
"^@	c #B54949",
"/@	c #953737",
"(@	c #949494",
"_@	c #B9B9B9",
":@	c #E6D1D1",
"<@	c #DE6565",
"[@	c #CD0101",
"}@	c #C50303",
"|@	c #A81010",
"1@	c #D87474",
"2@	c #C72929",
"3@	c #9E0000",
"4@	c #AC0000",
"5@	c #D03434",
"6@	c #D42626",
"7@	c #D74141",
"8@	c #D95151",
"9@	c #CC5A5A",
"0@	c #CA6E6E",
"a@	c #AB1515",
"b@	c #C5C5C5",
"c@	c #777777",
"d@	c #A2A2A2",
"e@	c #929292",
"f@	c #D7CDCD",
"g@	c #D44949",
"h@	c #CD0000",
"i@	c #BD0606",
"j@	c #DA6767",
"k@	c #D74646",
"l@	c #B30000",
"m@	c #A62525",
"n@	c #B77878",
"o@	c #B87272",
"p@	c #DD9696",
"q@	c #E26D6D",
"r@	c #E43F3F",
"s@	c #F26D6D",
"t@	c #F68A8A",
"u@	c #DD6D6D",
"v@	c #9E3D3D",
"w@	c #BABABA",
"x@	c #8D8D8D",
"y@	c #7F7F7F",
"z@	c #B5B5B5",
"A@	c #8F8F8F",
"B@	c #656565",
"C@	c #382D2D",
"D@	c #980E0E",
"E@	c #D77979",
"F@	c #ECA0A0",
"G@	c #EDAFAF",
"H@	c #EEAFAF",
"I@	c #E5A8A8",
"J@	c #C27C7C",
"K@	c #BB7575",
"L@	c #E2A2A2",
"M@	c #A60000",
"N@	c #FD5B5B",
"O@	c #FF8383",
"P@	c #FFA8A8",
"Q@	c #F28282",
"R@	c #871919",
"S@	c #313131",
"T@	c #2E2E2E",
"U@	c #282828",
"V@	c #252525",
"W@	c #212121",
"X@	c #9A5F5F",
"Y@	c #F3DCDC",
"Z@	c #FAEDED",
"`@	c #F9ECE9",
" #	c #F8EAEA",
".#	c #F2D3D3",
"+#	c #B78383",
"@#	c #AC6F6F",
"##	c #DD7676",
"$#	c #670000",
"%#	c #A80000",
"&#	c #FF6F6F",
"*#	c #FF8A8A",
"=#	c #FFA3A3",
"-#	c #FC9999",
";#	c #C01F1F",
">#	c #390000",
",#	c #454543",
"'#	c #2E2D2B",
")#	c #12110F",
"!#	c #906969",
"~#	c #EEDDDD",
"{#	c #8B8282",
"]#	c #F8F2EF",
"^#	c #897D7D",
"/#	c #E3DAD9",
"(#	c #F4F1F1",
"_#	c #C9ACAC",
":#	c #AA7171",
"<#	c #C94545",
"[#	c #720000",
"}#	c #DC1717",
"|#	c #FFB1B1",
"1#	c #FC9B9B",
"2#	c #D52D2D",
"3#	c #7B0101",
"4#	c #BEBCB8",
"5#	c #817E77",
"6#	c #34322C",
"7#	c #EAC4C4",
"8#	c #F8EEEE",
"9#	c #E1D1D1",
"0#	c #F5F2F2",
"a#	c #D2CFCF",
"b#	c #F4ECEB",
"c#	c #AFA09F",
"d#	c #EDD7D7",
"e#	c #A75F5F",
"f#	c #A70000",
"g#	c #950000",
"h#	c #F89898",
"i#	c #FFDBDB",
"j#	c #FFCECE",
"k#	c #FFB6B6",
"l#	c #F98D8D",
"m#	c #D92F2F",
"n#	c #9F0000",
"o#	c #090000",
"p#	c #D8D6D1",
"q#	c #9E9A91",
"r#	c #444139",
"s#	c #E0A4A4",
"t#	c #D8C6C4",
"u#	c #928787",
"v#	c #F5EFED",
"w#	c #F4F3F3",
"x#	c #F3F1F0",
"y#	c #F3EEEA",
"z#	c #E5CDCA",
"A#	c #A44F4F",
"B#	c #800000",
"C#	c #A00000",
"D#	c #FACECE",
"E#	c #FFE2E2",
"F#	c #FFCBCB",
"G#	c #FD9090",
"H#	c #F06A6A",
"I#	c #D62626",
"J#	c #AA0000",
"K#	c #0A0000",
"L#	c #E4E2DD",
"M#	c #B1ACA3",
"N#	c #504C43",
"O#	c #DC9D9D",
"P#	c #C68181",
"Q#	c #CEBFBF",
"R#	c #DDD8D6",
"S#	c #F4F2F1",
"T#	c #938F8E",
"U#	c #E3B2B0",
"V#	c #8D3838",
"W#	c #700000",
"X#	c #980000",
"Y#	c #F8ACAC",
"Z#	c #FFD9D9",
"`#	c #FDADAD",
" $	c #F65353",
".$	c #E23C3C",
"+$	c #CF0909",
"@$	c #0E0000",
"#$	c #B8B3A9",
"$$	c #555147",
"%$	c #E68F8F",
"&$	c #C15D5D",
"*$	c #DBAEAD",
"=$	c #A48F8D",
"-$	c #F3E1E0",
";$	c #F3EBEA",
">$	c #F8F6F6",
",$	c #EBD4CF",
"'$	c #BA7171",
")$	c #630000",
"!$	c #C60404",
"~$	c #F59494",
"{$	c #ED6363",
"]$	c #CE0000",
"^$	c #BB0000",
"/$	c #9D0000",
"($	c #8D1C1C",
"_$	c #555151",
":$	c #DA7171",
"<$	c #E58D8D",
"[$	c #C26060",
"}$	c #BA5656",
"|$	c #DCBDBC",
"1$	c #ECDFDF",
"2$	c #F1E2E1",
"3$	c #C7C3C0",
"4$	c #E0DFDF",
"5$	c #C2A8A8",
"6$	c #8C4B4B",
"7$	c #6E0000",
"8$	c #600000",
"9$	c #640000",
"0$	c #8C0000",
"a$	c #940000",
"b$	c #8F0000",
"c$	c #7C0000",
"d$	c #500000",
"e$	c #A5A5A5",
"f$	c #606060",
"g$	c #792C2C",
"h$	c #CA4343",
"i$	c #CC4848",
"j$	c #CC6363",
"k$	c #AE2F2F",
"l$	c #B95E5E",
"m$	c #DA9D9A",
"n$	c #B89292",
"o$	c #EADCDC",
"p$	c #756767",
"q$	c #762E2E",
"r$	c #550000",
"s$	c #4D0000",
"t$	c #320000",
"u$	c #140000",
"v$	c #1E1E1E",
"w$	c #DBDBDB",
"x$	c #9A9A9A",
"y$	c #742323",
"z$	c #C83939",
"A$	c #C63434",
"B$	c #C84040",
"C$	c #CD5050",
"D$	c #B22E2E",
"E$	c #AC0A0A",
"F$	c #A90000",
"G$	c #A50B0B",
"H$	c #C16A6A",
"I$	c #802121",
"J$	c #C85D5D",
"K$	c #870000",
"L$	c #5F0000",
"M$	c #590000",
"N$	c #360000",
"O$	c #070000",
"P$	c #010000",
"Q$	c #050000",
"R$	c #620000",
"S$	c #B41D1D",
"T$	c #C53737",
"U$	c #C83838",
"V$	c #D14B4B",
"W$	c #CC5050",
"X$	c #CF5454",
"Y$	c #D83838",
"Z$	c #E47171",
"`$	c #D73838",
" %	c #6F0000",
".%	c #440000",
"+%	c #260000",
"@%	c #160000",
"#%	c #300000",
"$%	c #3D0000",
"%%	c #4D4D4D",
"&%	c #100000",
"*%	c #7B0000",
"=%	c #C84343",
"-%	c #D13F3F",
";%	c #CF3232",
">%	c #CE3131",
",%	c #BC0101",
"'%	c #3B0000",
")%	c #380000",
"!%	c #190000",
"~%	c #1A0000",
"{%	c #3F0000",
"]%	c #740808",
"^%	c #0D0D0D",
"/%	c #BBBBBB",
"(%	c #E6E4DF",
"_%	c #D3D1CC",
":%	c #BBB9B5",
"<%	c #858481",
"[%	c #666462",
"}%	c #413C3B",
"|%	c #9C1615",
"1%	c #C32E2E",
"2%	c #C83535",
"3%	c #BF0B0B",
"4%	c #B20000",
"5%	c #BD0303",
"6%	c #302525",
"7%	c #ACACAC",
"8%	c #959595",
"9%	c #9B9B9B",
"0%	c #909090",
"a%	c #8B8780",
"b%	c #817D75",
"c%	c #6F6C66",
"d%	c #62605A",
"e%	c #4B4945",
"f%	c #373533",
"g%	c #541D1B",
"h%	c #A40505",
"i%	c #BD0A0A",
"j%	c #B50000",
"k%	c #B00000",
"l%	c #850000",
"m%	c #040000",
"n%	c #0F0000",
"o%	c #A8A8A8",
"p%	c #A3A3A3",
"q%	c #747474",
"r%	c #0C0C0C",
"s%	c #534F45",
"t%	c #4A463E",
"u%	c #434139",
"v%	c #3B3932",
"w%	c #33312B",
"x%	c #282621",
"y%	c #211F1B",
"z%	c #560D0B",
"A%	c #970303",
"B%	c #930000",
"C%	c #919191",
"D%	c #5E0000",
"E%	c #C2C2C2",
"F%	c #050505",
"G%	c #939393",
"H%	c #707070",
"I%	c #171717",
"J%	c #090909",
"                                                                                                ",
"            . + + + + + + + + + + + + + + + + + + @                                             ",
"          + # $ $ % % & & * * = = + - ; ; . . > , ' )                                           ",
"          * $ ! ~ { { ] ^ / ( _ : < < [ } | : ~ 1 2 3 4                                         ",
"          * $ 5 6 7 7 7 8 8 8 9 9 9 9 9 9 0 a b c d e f                                         ",
"          = % ^ g h i j k l m n o p q r s t u v ] w e f                                         ",
"          = % / g x y z A B C D E F G H I J K L ] 2 M f                                         ",
"          = & ( g N O P Q R S T U V G W X Y Z ` ^  ...f                                         ",
"          = & _ g +.@.#.$.%.&.*.=.-.;.>.,.'.).!.^ ~ 3 f                                         ",
"          = & : g ~.{.Q %.].T ^./.(._.:.<.[.}.|.^ 1.2.f                                         ",
"          = * : g 3.4.4.5.*.6.7.8.9.0.a.b.c.d.|./ 5 e.f                                         ",
"          = * < f.g.h.i.j.k.l.m.n.o.p.q.r.s.t.u.( v.w.f                                         ",
"          = = x.f.y.z.A.B.C.D.E.F.a.q.G.H.I.J.K.( ] w.f                                         ",
"          = = [ f.L.M.N.O.P.Q.R.S.T.U.V.W.X.Y.Z.( / `.f                                         ",
"          = + x.f. +.+++@+#+$+#+%+&+*+=+-+;+>+,+_ _ `.f                                         ",
"          = + { a '+)+!+~+{+]+]+^+/+(+_+:+<+` [+x.< }+f                                         ",
"          = + @ |+1+1+1+1+2+3+3+3+4+4+4+5+5+5+6+> [ }+f                                         ",
"          = ; ; . . 7+, 7+d @ 2  .8+1.5 v.{ 9+0+a+| b+c+d+e+                                    ",
"          > x.8+> 7+ .f+, ' d g+] 1.c f+] { h+i+j+k+l+m+n+0 o+                                  ",
"            p+8 q+r+s+t+u+v+w+x+t+p+p+w+y+u+v+z+A+B+f       r+C+                                ",
"              d+d+f f f f f f 4 f 4 4 f 4 4 f f D+D+      g E+F+                                ",
"              f D+D+D+D+D+D+D+D+f D+f f D+f f D+D+D+        G+e.                                ",
"                    D+D+D+D+D+D+D+D+D+D+D+D+D+D+D+D+        H+t+                                ",
"        '  .8+c { : } |+| | | | | | | | | | | | |+[ < { I+  J+g                                 ",
"      K+& * . w * > } - x.* = + = 1 3+2  .c { ] L+M+N+O+P+Q+R+S+                                ",
"      c % 3+[ + < 3+~ T+~ < K+T+U+V+{ 8+c < 3+< W+X+Y+Z+`+ @.@+@@@#@                            ",
"    $@$ ! %@@ - * w = d . 7+f+; ] %@&@[ 4+6+*@=@-@;@>@,@'@)@!@~@{@]@^@/@                        ",
"    7+% * - . x.( %@[ v.[ (@< 4+] x., - _@( v.:@<@[@}@|@1@2@3@4@5@6@7@8@9@0@a@                  ",
"    $ - b@[ ~ ! 7+. > > > d > d c@b@d@e@b@] ~ f@g@h@i@j@k@l@m@n@o@p@q@r@s@t@u@v@                ",
"  + . w@} ; > _@e@x@y@c@G+M 2.2.z@1.g+A@(@1+B@w+C@D@E@F@G@H@I@J@K@L@3@M@N@O@P@Q@R@              ",
"  c y+w+w+w+y+u+b+b+t+s+) ) 7 8 0 S@S@T@n+v+U@V@W@X@Y@Z@`@ #.#+#@###$#%#&#*#=#-#;#>#            ",
"    ,#'#)#D+D+D+D+D+D+D+D+D+D+D+D+D+D+D+D+D+D+D+!#~#{#]#^#/#(#_#:#<#[#}#|#|#|#1#2#3#D+          ",
"    4#5#6#                                      7#8#9#0#a#b#c#d#e#f#g#h#i#j#k#l#m#n#o#          ",
"    p#q#r#                                    s#t#u#v#w#w#x#y#z#A#B#C#D#E#F#G#H#I#J#K#D+        ",
"    L#M#N#                                  O#P#d#Q#R#S#x#S#T#U#V#W#X#Y#Z#`# $.$+$n#@$D+        ",
"      #$$$                                %$F@&$*$=$Q#-$;$>$,$'$[#)$[#!$~${$]$^$/$($_$D+        ",
"                                          :$<$[$}$|$1$2$3$4$5$6$7$8$9$7$0$a$b$c$d$D+f e$f$      ",
"                                        g$h$i$j$k$M@l$m$n$o$p$q$3@$#)$r$s$t$u$D+D+D+D+v$w$x$    ",
"                                        y$z$A$B$C$D$E$F$G$H$I$J$K$7$L$M$N$O$D+P$Q$o#D+f _@[     ",
"                                          R$S$T$U$U$V$W$X$Y$Z$`$ %8$.%+%@%#%$%@%D+D+D+  %%4+e$  ",
"                                          D+&%*%U$U$U$=%-%;%>%,%'%)%!%~%~%{%]%u$D+D+    ^%/%M   ",
"                                      (%_%:%<%[%}%|%1%2%3%4%5%b$P$o#u$!%o#D+6%7%d+        8%9%0%",
"                                      c.a%b%c%d%e%f%g%h%i%j%k%l%D+m%n%D+D+D+x@o%7%U@      p%q%r%",
"                                      $$s%N#t%u%v%w%x%y%z%A%j%B%D+D+D+D+D+D+f C%e z@w @ ( 7%e@%%",
"                                                        D+D+D%g#D+D+D+D+    D+e+E%F%3+G%H%/%D+  ",
"                                                          D+D+D+D+D+            D+D+C+I%J%e+    ",
"                                                                                    c+d+        ",
"                                                                                                "};
