/* XPM */
static char * gnome_light_off_xpm[] = {
"16 16 48 1",
" 	c None",
".	c #000000",
"+	c #A6B2BD",
"@	c #D0DDE9",
"#	c #CBD9E7",
"$	c #BDCFE0",
"%	c #A7BED3",
"&	c #7B90A4",
"*	c #DEE7EF",
"=	c #E7EEF4",
"-	c #B5CADD",
";	c #9BB5CE",
">	c #76899D",
",	c #F2F2F2",
"'	c #727679",
")	c #BACCDF",
"!	c #AAC2D8",
"~	c #9DB1C5",
"{	c #85898D",
"]	c #A8B0B6",
"^	c #A3AEBA",
"/	c #6F7B86",
"(	c #C4D4DF",
"_	c #C1CBD9",
":	c #CDDBE8",
"<	c #79838D",
"[	c #828B93",
"}	c #D7E1E7",
"|	c #CED5E0",
"1	c #8597A8",
"2	c #ADC2D4",
"3	c #B7C8D9",
"4	c #BCCDDC",
"5	c #C4D1DF",
"6	c #8A939A",
"7	c #D1DAE2",
"8	c #868F97",
"9	c #6D7F90",
"0	c #93A7B9",
"a	c #A1B4C4",
"b	c #8A95A1",
"c	c #868F9A",
"d	c #7E8892",
"e	c #C4B069",
"f	c #A19156",
"g	c #EED680",
"h	c #D8C274",
"i	c #B2A05F",
"                ",
"                ",
"      ......    ",
"     .+@#$%&.   ",
"    .+*=*#-;>.  ",
"    .@=,'@)!~.  ",
"    .#*{]^/(_.  ",
"    .$#@:<[}|.  ",
"    .12345678.  ",
"     .90abcd.   ",
"      ..ef..    ",
"      .gggh.    ",
"       .ef.     ",
"      .hghi.    ",
"       ....     ",
"        ..      "};
